<svg width="93" height="93" viewBox="0 0 93 93" fill="none" xmlns="http://www.w3.org/2000/svg">

	<path d="M93 46.5C93 72.1812 72.1812 93 46.5 93C20.8188 93 0 72.1812 0 46.5C0 20.8188 20.8188 0 46.5 0C72.1812 0 93 20.8188 93 46.5Z" fill="url(#paint0_linear_4_14)"/>
	<path fill-rule="evenodd" clip-rule="evenodd" d="M72.5 76C72.5 77.933 70.933 79.5 69 79.5L24 79.5C21.5147 79.5 19.5 77.4853 19.5 75L19.5 17C19.5 15.067 21.067 13.5 23 13.5C24.933 13.5 26.5 15.067 26.5 17L26.5 72.5L69 72.5C70.933 72.5 72.5 74.067 72.5 76Z" fill="white"/>
	<path fill-rule="evenodd" clip-rule="evenodd" d="M33 19.5C34.933 19.5 36.5 21.067 36.5 23V66C36.5 67.933 34.933 69.5 33 69.5C31.067 69.5 29.5 67.933 29.5 66L29.5 23C29.5 21.067 31.067 19.5 33 19.5Z" fill="white"/>
	<path fill-rule="evenodd" clip-rule="evenodd" d="M38.8312 22.2529C40.3484 21.0552 42.5493 21.3141 43.7471 22.8313L73.7471 60.8313C74.9448 62.3484 74.6859 64.5493 73.1687 65.7471C71.6516 66.9449 69.4507 66.6859 68.2529 65.1688L38.2529 27.1688C37.0551 25.6516 37.314 23.4507 38.8312 22.2529Z" fill="white"/>
	<path fill-rule="evenodd" clip-rule="evenodd" d="M37.3257 45.7128L40.9615 44.3551C45.5688 42.6345 50.6985 44.9747 52.419 49.582C54.1396 54.1893 51.7994 59.3191 47.1921 61.0396L43.5563 62.3973L37.3257 45.7128ZM45.3172 58.5373L46.1426 58.2292C49.1977 57.0883 50.7495 53.6867 49.6086 50.6315C48.4677 47.5764 45.0661 46.0246 42.011 47.1655L41.1857 47.4737L42.7224 51.5889L44.8929 50.6282L46.1071 53.3715L43.7738 54.4043L45.3172 58.5373Z" fill="white"/>

	<defs>
		<linearGradient id="paint0_linear_4_14" x1="0" y1="0" x2="93" y2="93" gradientUnits="userSpaceOnUse">
			<stop stop-color="#4737FF"/>
			<stop offset="1" stop-color="#6EA4FC"/>
		</linearGradient>
	</defs>
</svg>
