<?xml version="1.0" standalone="no"?>
<!DOCTYPE svg PUBLIC "-//W3C//DTD SVG 20010904//EN"
 "http://www.w3.org/TR/2001/REC-SVG-20010904/DTD/svg10.dtd">
<svg version="1.0" xmlns="http://www.w3.org/2000/svg"
 width="700.000000pt" height="700.000000pt" viewBox="0 0 700.000000 700.000000"
 preserveAspectRatio="xMidYMid meet">
<metadata>
Created by potrace 1.14, written by Peter Selinger 2001-2017
</metadata>
<g transform="translate(0.000000,700.000000) scale(0.100000,-0.100000)"
fill="#000000" stroke="none">
<path d="M3285 6994 c-22 -2 -89 -9 -150 -14 -411 -40 -846 -169 -1225 -362
-343 -176 -628 -387 -908 -672 -561 -572 -884 -1255 -984 -2081 -16 -135 -16
-591 0 -730 83 -697 328 -1290 761 -1835 106 -135 415 -439 551 -544 410 -317
836 -527 1305 -645 621 -155 1241 -144 1860 36 340 99 708 276 1009 487 325
228 634 537 862 862 670 956 818 2206 387 3289 -174 439 -420 817 -753 1159
-571 586 -1292 938 -2125 1036 -92 11 -518 21 -590 14z m-1437 -1040 c58 -29
96 -69 126 -134 l21 -45 3 -2118 3 -2118 1627 3 c1817 3 1656 10 1742 -68 64
-58 85 -105 85 -194 0 -89 -21 -136 -85 -194 -86 -78 83 -71 -1825 -74 -1154
-2 -1732 1 -1778 8 -38 6 -90 21 -115 34 -66 34 -135 110 -161 179 l-21 58 0
2238 c0 2499 -6 2291 72 2371 55 57 108 80 189 80 50 0 77 -6 117 -26z m750
-450 c65 -32 118 -93 137 -158 23 -75 23 -3317 0 -3392 -66 -223 -375 -248
-488 -39 l-22 40 0 1695 0 1695 22 40 c69 129 225 182 351 119z m597 -148 c28
-12 66 -40 85 -62 90 -100 2278 -2880 2300 -2921 34 -64 35 -168 2 -229 -71
-137 -231 -189 -361 -119 -49 27 -97 84 -575 690 -286 363 -807 1023 -1158
1468 -664 841 -668 847 -668 937 0 40 25 115 50 149 72 102 213 140 325 87z
m283 -1672 c120 -27 273 -120 351 -215 222 -269 208 -661 -32 -902 -93 -93
-151 -126 -353 -203 l-165 -63 -10 27 c-123 317 -457 1228 -451 1233 8 7 246
96 312 116 97 31 230 33 348 7z"/>
<path d="M3225 3466 c-33 -8 -74 -20 -92 -27 l-31 -14 55 -150 c31 -82 57
-151 58 -153 1 -1 39 13 84 33 l82 35 18 -43 c10 -23 30 -69 45 -101 15 -33
23 -63 19 -66 -5 -4 -43 -22 -85 -40 -43 -19 -78 -37 -78 -40 0 -20 109 -295
119 -298 20 -7 158 67 200 108 175 170 188 443 28 618 -108 117 -274 171 -422
138z"/>
</g>
</svg>
