<svg width="249" height="93" viewBox="0 0 249 93" fill="none" xmlns="http://www.w3.org/2000/svg">
	<style>
		path.logo-text {
			//fill: black;
		}
@media (forced-colors: active) and (prefers-color-scheme: dark) {
    path.logo-text {
        fill: #fff;
    }
}
	</style>
	<path d="M93 46.5C93 72.1812 72.1812 93 46.5 93C20.8188 93 0 72.1812 0 46.5C0 20.8188 20.8188 0 46.5 0C72.1812 0 93 20.8188 93 46.5Z" fill="url(#paint0_linear_1_34)"/>
	<path fill-rule="evenodd" clip-rule="evenodd" d="M72.5 76C72.5 77.933 70.933 79.5 69 79.5L24 79.5C21.5147 79.5 19.5 77.4853 19.5 75L19.5 17C19.5 15.067 21.067 13.5 23 13.5C24.933 13.5 26.5 15.067 26.5 17L26.5 72.5L69 72.5C70.933 72.5 72.5 74.067 72.5 76Z" fill="white"/>
	<path fill-rule="evenodd" clip-rule="evenodd" d="M33 19.5C34.933 19.5 36.5 21.067 36.5 23V66C36.5 67.933 34.933 69.5 33 69.5C31.067 69.5 29.5 67.933 29.5 66L29.5 23C29.5 21.067 31.067 19.5 33 19.5Z" fill="white"/>
	<path fill-rule="evenodd" clip-rule="evenodd" d="M38.8312 22.2529C40.3484 21.0552 42.5493 21.3141 43.7471 22.8313L73.7471 60.8313C74.9448 62.3484 74.6859 64.5493 73.1687 65.7471C71.6516 66.9449 69.4507 66.6859 68.2529 65.1688L38.2529 27.1688C37.0551 25.6516 37.314 23.4507 38.8312 22.2529Z" fill="white"/>
	<path fill-rule="evenodd" clip-rule="evenodd" d="M37.3257 45.7128L40.9615 44.3551C45.5688 42.6345 50.6985 44.9747 52.419 49.582C54.1396 54.1893 51.7994 59.3191 47.1921 61.0396L43.5563 62.3973L37.3257 45.7128ZM45.3172 58.5373L46.1426 58.2292C49.1977 57.0883 50.7495 53.6867 49.6086 50.6315C48.4677 47.5764 45.0661 46.0246 42.011 47.1655L41.1857 47.4737L42.7224 51.5889L44.8929 50.6282L46.1071 53.3715L43.7738 54.4043L45.3172 58.5373Z" fill="white"/>
	<path class="logo-text" d="M228.463 68.696C226.259 68.696 224.345 68.3287 222.721 67.594C221.097 66.8594 219.841 65.8153 218.951 64.462C218.062 63.07 217.617 61.4653 217.617 59.648C217.617 57.908 218.004 56.3613 218.777 55.008C219.551 53.616 220.749 52.456 222.373 51.528C223.997 50.6 226.047 49.9427 228.521 49.556L238.845 47.874V53.674L229.971 55.182C228.463 55.4527 227.342 55.936 226.607 56.632C225.873 57.328 225.505 58.2367 225.505 59.358C225.505 60.4407 225.911 61.3107 226.723 61.968C227.574 62.5867 228.618 62.896 229.855 62.896C231.441 62.896 232.833 62.5674 234.031 61.91C235.269 61.214 236.216 60.2667 236.873 59.068C237.569 57.8694 237.917 56.5547 237.917 55.124V47.004C237.917 45.6507 237.376 44.5293 236.293 43.64C235.249 42.712 233.857 42.248 232.117 42.248C230.493 42.248 229.043 42.6927 227.767 43.582C226.53 44.4327 225.621 45.5733 225.041 47.004L218.835 43.988C219.454 42.3254 220.421 40.8947 221.735 39.696C223.089 38.4587 224.674 37.492 226.491 36.796C228.309 36.1 230.281 35.752 232.407 35.752C234.998 35.752 237.279 36.2353 239.251 37.202C241.223 38.13 242.751 39.4447 243.833 41.146C244.955 42.8087 245.515 44.7613 245.515 47.004V68H238.323V62.606L239.947 62.49C239.135 63.8433 238.169 64.984 237.047 65.912C235.926 66.8013 234.65 67.4973 233.219 68C231.789 68.464 230.203 68.696 228.463 68.696Z" fill="black"/>
	<path class="logo-text" d="M204.28 68V36.448H211.878V68H204.28ZM204.28 32.91V24.79H211.878V32.91H204.28Z" fill="black"/>
	<path class="logo-text" d="M179.985 68.696C176.931 68.696 174.205 67.9807 171.807 66.55C169.41 65.0807 167.515 63.0893 166.123 60.576C164.731 58.0627 164.035 55.2787 164.035 52.224C164.035 49.1307 164.731 46.3467 166.123 43.872C167.515 41.3973 169.41 39.4253 171.807 37.956C174.243 36.4867 176.95 35.752 179.927 35.752C182.325 35.752 184.451 36.2353 186.307 37.202C188.202 38.13 189.691 39.4447 190.773 41.146L189.613 42.712V24.094H197.211V68H190.019V61.91L190.831 63.418C189.749 65.1193 188.241 66.434 186.307 67.362C184.374 68.2513 182.267 68.696 179.985 68.696ZM180.797 61.736C182.537 61.736 184.065 61.33 185.379 60.518C186.694 59.706 187.719 58.5847 188.453 57.154C189.227 55.7233 189.613 54.08 189.613 52.224C189.613 50.4067 189.227 48.7827 188.453 47.352C187.719 45.8827 186.694 44.742 185.379 43.93C184.065 43.118 182.537 42.712 180.797 42.712C179.096 42.712 177.569 43.1373 176.215 43.988C174.862 44.8 173.799 45.9213 173.025 47.352C172.291 48.744 171.923 50.368 171.923 52.224C171.923 54.08 172.291 55.7233 173.025 57.154C173.799 58.5847 174.862 59.706 176.215 60.518C177.569 61.33 179.096 61.736 180.797 61.736Z" fill="black"/>
	<path class="logo-text" d="M150.698 68V36.448H158.296V68H150.698ZM150.698 32.91V24.79H158.296V32.91H150.698Z" fill="black"/>
	<path class="logo-text" d="M119.844 68V24.79H127.732V61.04H146.234V68H119.844Z" fill="black"/>
	
	<defs>
		<linearGradient id="paint0_linear_1_34" x1="0" y1="0" x2="93" y2="93" gradientUnits="userSpaceOnUse">
			<stop stop-color="#4737ff"/>
			<stop offset="1" stop-color="#6ea4fc"/>
	</linearGradient>
	</defs>
</svg>
