<svg aria-hidden="true" xmlns="http://www.w3.org/2000/svg" xmlns:xlink="http://www.w3.org/1999/xlink">

<!-- scrollbar-button-top -->
<symbol id="scrollbar-button-top" viewBox="0 0 33 27" fill="#fff" xmlns="http://www.w3.org/2000/svg">
	<path fill-rule="evenodd" clip-rule="evenodd" d="M14.3602 1.64099C15.3327 0.0313733 17.6673 0.0313733 18.6398 1.64099L32.2839 24.2243C32.7123 24.9334 32.4847 25.8555 31.7757 26.2838C31.0666 26.7122 30.1445 26.4847 29.7161 25.7756L16.5 3.90068L3.28388 25.7756C2.85549 26.4847 1.9334 26.7122 1.22434 26.2838C0.515272 25.8555 0.287743 24.9334 0.716135 24.2243L14.3602 1.64099Z"/>
</symbol>

<!-- sparkles -->
<symbol id="sparkles" viewBox="0 0 192 185" xmlns="http://www.w3.org/2000/svg">
	<path d="M188.684 88.8983L166.265 81.6722C151.926 76.9407 143.525 65.3371 139.582 50.7561L129.716 2.70019C129.459 1.75065 128.831 0.479248 126.9 0.479248C125.275 0.479248 124.341 1.75065 124.084 2.70019L114.218 50.7722C110.259 65.3532 101.874 76.9567 87.5347 81.6883L65.1161 88.9144C61.9456 89.9444 61.8974 94.4185 65.0517 95.4967L87.6313 103.27C101.923 108.018 110.259 119.605 114.218 134.122L124.1 181.647C124.357 182.596 124.888 184.302 126.916 184.302C129.057 184.302 129.475 182.596 129.733 181.647L139.614 134.122C143.573 119.589 151.91 108.002 166.201 103.27L188.78 95.4967C191.903 94.4024 191.854 89.9283 188.684 88.8983Z" fill="#FDD835"/>
	<path d="M190.808 90.91C190.454 90.0249 189.762 89.2524 188.684 88.8983L166.265 81.6722C151.926 76.9406 143.525 65.337 139.582 50.7561L129.716 2.70017C129.572 2.15298 129.057 1.15517 128.461 0.865479L131.648 49.0984C134.013 71.1147 136.041 81.4791 153.616 84.5047C168.712 87.1119 186.173 90.1053 190.808 90.91Z" fill="#FFEE58"/>
	<path d="M190.857 93.4207L151.974 102.337C138.278 105.813 130.73 113.747 130.73 134.508L126.916 184.302C128.22 184.173 129.282 183.465 129.732 181.647L139.614 134.122C143.573 119.589 151.91 108.002 166.201 103.27L188.78 95.4967C189.843 95.1105 190.519 94.3219 190.857 93.4207Z" fill="#F4B400"/>
	<path d="M60.288 130.71C46.8819 126.284 45.6587 121.295 43.4056 112.878L37.7889 93.1793C37.4509 91.9079 34.1356 91.9079 33.7816 93.1793L29.9673 111.381C27.6981 119.766 22.87 126.429 14.63 129.149L1.49749 134.846C-0.321108 135.441 -0.353295 138.016 1.4653 138.628L14.6944 143.311C22.9022 146.031 27.6981 152.694 29.9834 161.047L33.7976 178.46C34.1517 179.731 37.4509 179.731 37.7889 178.46L42.263 161.127C44.5322 152.726 48.0084 146.047 59.1614 143.311L71.5858 138.628C73.4044 138 73.3883 135.425 71.5536 134.83L60.288 130.71Z" fill="#FDD835"/>
	<path d="M38.8511 112.588C40.2191 125.238 40.9111 128.746 51.1628 131.37L72.5192 135.538C72.2939 135.232 71.972 134.975 71.5375 134.846L60.2719 130.71C48.5073 126.686 45.2564 121.569 43.0516 111.333C40.8467 101.097 38.497 94.4185 38.497 94.4185C37.6762 92.2136 36.5014 92.3263 36.5014 92.3263L38.8511 112.588Z" fill="#FFEE58"/>
	<path d="M39.2373 156.75C39.2373 144.824 45.7553 138.918 56.1197 138.918L72.2456 138.258C72.2456 138.258 71.3122 139.497 69.6867 139.883L59.1614 143.311C50.2294 146.9 46.1576 148.703 43.3895 160.918C43.3895 160.918 39.8167 175.129 39.1408 176.625C38.2073 178.717 37.0969 179.152 37.0969 179.152L39.2373 156.75Z" fill="#F4B400"/>
	<path d="M89.144 36.2878C90.0453 35.9821 90.0131 34.6946 89.0958 34.4371L76.6714 31.0896C75.3935 30.743 74.2269 30.0719 73.285 29.1413C72.3431 28.2107 71.658 27.0523 71.2961 25.7786L66.4036 5.58097C66.1622 4.59925 64.762 4.59925 64.5206 5.59706L59.9178 25.7142C59.57 27.023 58.8797 28.2154 57.9179 29.1687C56.9562 30.122 55.7577 30.8017 54.4459 31.1378L42.102 34.3405C41.1847 34.5819 41.1203 35.8694 42.0215 36.1913L55.0414 40.6975C57.375 41.5022 59.1775 43.4013 59.8856 45.7671L64.5367 64.4197C64.7781 65.3853 66.1622 65.4014 66.4036 64.4197L71.2156 45.7027C71.572 44.5346 72.2017 43.4683 73.0525 42.5922C73.9034 41.7162 74.9509 41.0556 76.1081 40.6653L89.144 36.2878Z" fill="#F4B400" stroke="#F4B400" stroke-width="6.25" stroke-miterlimit="10"/>
</symbol>

<!-- arrow-right button -->
<symbol id="arrow-right" viewBox="0 0 11 9" xmlns="http://www.w3.org/2000/svg">
	<path d="M4.40163 9L9.04163 3.928V5.336L4.40163 0.296H6.88163L10.5936 4.2V5.064L6.88163 9H4.40163ZM0.513625 5.576V3.72H8.91363V5.576H0.513625Z" fill="currentColor"/>
</symbol>

<!-- review -->
<symbol id="review" viewBox="0 0 40 40" fill="none" xmlns="http://www.w3.org/2000/svg">
	<path d="M36.75 18.9376C36.7565 21.4123 36.1783 23.8536 35.0625 26.0626C33.7396 28.7096 31.7058 30.936 29.189 32.4925C26.6722 34.0489 23.7717 34.8739 20.8125 34.8751C18.3377 34.8815 15.8965 34.3033 13.6875 33.1876L3 36.7501L6.5625 26.0626C5.44675 23.8536 4.86855 21.4123 4.875 18.9376C4.87615 15.9783 5.70115 13.0779 7.2576 10.5611C8.81405 8.04427 11.0405 6.01049 13.6875 4.68755C15.8965 3.5718 18.3377 2.9936 20.8125 3.00005H21.75C25.6582 3.21566 29.3495 4.86523 32.1171 7.63291C34.8848 10.4006 36.5344 14.0919 36.75 18.0001V18.9376Z" stroke="currentColor" stroke-width="5" stroke-linecap="round" stroke-linejoin="round"/>
</symbol>

<!-- search -->
<symbol id="search" viewBox="0 0 39 39" fill="none" xmlns="http://www.w3.org/2000/svg">
	<path fill-rule="evenodd" clip-rule="evenodd" d="M17.625 5.125C10.7214 5.125 5.125 10.7214 5.125 17.625C5.125 24.5286 10.7214 30.125 17.625 30.125C24.5286 30.125 30.125 24.5286 30.125 17.625C30.125 10.7214 24.5286 5.125 17.625 5.125ZM0.125 17.625C0.125 7.96002 7.96002 0.125 17.625 0.125C27.29 0.125 35.125 7.96002 35.125 17.625C35.125 27.29 27.29 35.125 17.625 35.125C7.96002 35.125 0.125 27.29 0.125 17.625Z" fill="currentColor"/>
	<path fill-rule="evenodd" clip-rule="evenodd" d="M26.451 26.451C27.4273 25.4747 29.0102 25.4747 29.9865 26.451L38.1428 34.6072C39.1191 35.5835 39.1191 37.1665 38.1428 38.1428C37.1665 39.1191 35.5835 39.1191 34.6072 38.1428L26.451 29.9865C25.4747 29.0102 25.4747 27.4273 26.451 26.451Z" fill="currentColor"/>
</symbol>


<!-- wishlist -->
<symbol id="wishlist" viewBox="0 0 45 40" fill="none" xmlns="http://www.w3.org/2000/svg">
	<path d="M39.1712 6.02217C38.2135 5.06406 37.0764 4.30401 35.825 3.78546C34.5735 3.2669 33.2321 3 31.8774 3C30.5228 3 29.1814 3.2669 27.9299 3.78546C26.6784 4.30401 25.5413 5.06406 24.5837 6.02217L22.5962 8.00967L20.6087 6.02217C18.6742 4.08775 16.0506 3.001 13.3149 3.001C10.5792 3.001 7.95559 4.08775 6.02117 6.02217C4.08675 7.9566 3 10.5802 3 13.3159C3 16.0516 4.08675 18.6753 6.02117 20.6097L8.00867 22.5972L22.5962 37.1847L37.1837 22.5972L39.1712 20.6097C40.1293 19.652 40.8893 18.515 41.4079 17.2635C41.9264 16.012 42.1933 14.6706 42.1933 13.3159C42.1933 11.9613 41.9264 10.6199 41.4079 9.36838C40.8893 8.1169 40.1293 6.97984 39.1712 6.02217Z" stroke="currentColor" stroke-width="5" stroke-linecap="round" stroke-linejoin="round"/>
</symbol>

<!-- SOCIAL -->
<!-- instagram -->
<symbol id="instagram" viewBox="0 0 39 38" fill="none" xmlns="http://www.w3.org/2000/svg">
	<path fill-rule="evenodd" clip-rule="evenodd" d="M11.1667 4.3335C7.66886 4.3335 4.83333 7.16903 4.83333 10.6668V27.3335C4.83333 30.8313 7.66886 33.6668 11.1667 33.6668H27.8333C31.3311 33.6668 34.1667 30.8313 34.1667 27.3335V10.6668C34.1667 7.16903 31.3311 4.3335 27.8333 4.3335H11.1667ZM0.833332 10.6668C0.833332 4.95989 5.45972 0.333496 11.1667 0.333496H27.8333C33.5403 0.333496 38.1667 4.95989 38.1667 10.6668V27.3335C38.1667 33.0404 33.5403 37.6668 27.8333 37.6668H11.1667C5.45972 37.6668 0.833332 33.0404 0.833332 27.3335V10.6668ZM20.2566 14.3119C19.2857 14.1679 18.294 14.3337 17.4228 14.7858C16.5515 15.2379 15.845 15.9532 15.4037 16.83C14.9624 17.7067 14.8088 18.7003 14.9647 19.6694C15.1207 20.6385 15.5782 21.5338 16.2723 22.2279C16.9664 22.922 17.8616 23.3795 18.8307 23.5354C19.7998 23.6914 20.7934 23.5378 21.6702 23.0965C22.547 22.6552 23.2623 21.9486 23.7144 21.0774C24.1664 20.2061 24.3323 19.2145 24.1883 18.2435C24.0414 17.2531 23.5799 16.3362 22.8719 15.6282C22.164 14.9202 21.247 14.4587 20.2566 14.3119ZM15.5805 11.2353C17.1986 10.3957 19.0402 10.0877 20.8434 10.3551C22.6827 10.6279 24.3855 11.485 25.7004 12.7998C27.0152 14.1146 27.8723 15.8175 28.145 17.6568C28.4124 19.46 28.1044 21.3016 27.2648 22.9197C26.4253 24.5377 25.0969 25.8499 23.4686 26.6694C21.8403 27.489 19.995 27.7743 18.1952 27.4846C16.3955 27.195 14.7328 26.3453 13.4439 25.0563C12.1549 23.7673 11.3051 22.1047 11.0155 20.3049C10.7259 18.5052 11.0112 16.6599 11.8307 15.0316C12.6503 13.4033 13.9624 12.0749 15.5805 11.2353ZM28.6667 7.8335C27.5621 7.8335 26.6667 8.72893 26.6667 9.8335C26.6667 10.9381 27.5621 11.8335 28.6667 11.8335H28.6833C29.7879 11.8335 30.6833 10.9381 30.6833 9.8335C30.6833 8.72893 29.7879 7.8335 28.6833 7.8335H28.6667Z" fill="currentColor"/>
</symbol>

<!-- facebook -->
<symbol id="facebook" viewBox="0 0 23 38" fill="none" xmlns="http://www.w3.org/2000/svg">
	<path d="M21 2.3335H16C13.7899 2.3335 11.6702 3.21147 10.1074 4.77427C8.54464 6.33708 7.66667 8.45669 7.66667 10.6668V15.6668H2.66667V22.3335H7.66667V35.6668H14.3333V22.3335H19.3333L21 15.6668H14.3333V10.6668C14.3333 10.2248 14.5089 9.80088 14.8215 9.48832C15.1341 9.17576 15.558 9.00016 16 9.00016H21V2.3335Z" stroke="currentColor" stroke-width="4" stroke-linecap="round" stroke-linejoin="round"/>
</symbol>

<!-- twitter -->
<symbol id="twitter" viewBox="0 0 40 35" fill="none" xmlns="http://www.w3.org/2000/svg">
	<path d="M38.3333 3.00016C36.7373 4.12595 34.9702 4.98701 33.1 5.55016C32.0962 4.39601 30.7622 3.57798 29.2784 3.2067C27.7946 2.83543 26.2325 2.92882 24.8035 3.47425C23.3744 4.01968 22.1474 4.99083 21.2883 6.25635C20.4292 7.52188 19.9795 9.02072 20 10.5502V12.2168C17.0711 12.2928 14.1688 11.6432 11.5517 10.3259C8.93457 9.00862 6.68386 7.06455 5 4.66682C5 4.66682 -1.66667 19.6668 13.3333 26.3335C9.90088 28.6634 5.81193 29.8317 1.66666 29.6668C16.6667 38.0002 35 29.6668 35 10.5002C34.9985 10.0359 34.9538 9.57282 34.8667 9.11682C36.5677 7.43931 37.768 5.32135 38.3333 3.00016Z" stroke="currentColor" stroke-width="4" stroke-linecap="round" stroke-linejoin="round"/>
</symbol>

<!-- x-twitter -->
<symbol id="x-twitter" viewBox="0 0 37 34" fill="none" xmlns="http://www.w3.org/2000/svg">
	<path d="M28.4063 0.75H33.9219L21.875 14.5156L36.0469 33.25H24.9531L16.2578 21.8906L6.32031 33.25H0.796875L13.6797 18.5234L0.09375 0.75H11.4687L19.3203 11.1328L28.4063 0.75ZM26.4688 29.9531H29.5234L9.80469 3.875H6.52344L26.4688 29.9531Z" fill="currentColor"/>
	<!-- <path d="M389.2 48h70.6L305.6 224.2 487 464H345L233.7 318.6 106.5 464H35.8L200.7 275.5 26.8 48H172.4L272.9 180.9 389.2 48zM364.4 421.8h39.1L151.1 88h-42L364.4 421.8z" fill="currentColor"/> -->
</symbol>

</svg>