<svg width="39" height="38" viewBox="0 0 39 38" fill="none" xmlns="http://www.w3.org/2000/svg">
<path fill-rule="evenodd" clip-rule="evenodd" d="M11.1667 4.3335C7.66886 4.3335 4.83333 7.16903 4.83333 10.6668V27.3335C4.83333 30.8313 7.66886 33.6668 11.1667 33.6668H27.8333C31.3311 33.6668 34.1667 30.8313 34.1667 27.3335V10.6668C34.1667 7.16903 31.3311 4.3335 27.8333 4.3335H11.1667ZM0.833332 10.6668C0.833332 4.95989 5.45972 0.333496 11.1667 0.333496H27.8333C33.5403 0.333496 38.1667 4.95989 38.1667 10.6668V27.3335C38.1667 33.0404 33.5403 37.6668 27.8333 37.6668H11.1667C5.45972 37.6668 0.833332 33.0404 0.833332 27.3335V10.6668ZM20.2566 14.3119C19.2857 14.1679 18.294 14.3337 17.4228 14.7858C16.5515 15.2379 15.845 15.9532 15.4037 16.83C14.9624 17.7067 14.8088 18.7003 14.9647 19.6694C15.1207 20.6385 15.5782 21.5338 16.2723 22.2279C16.9664 22.922 17.8616 23.3795 18.8307 23.5354C19.7998 23.6914 20.7934 23.5378 21.6702 23.0965C22.547 22.6552 23.2623 21.9486 23.7144 21.0774C24.1664 20.2061 24.3323 19.2145 24.1883 18.2435C24.0414 17.2531 23.5799 16.3362 22.8719 15.6282C22.164 14.9202 21.247 14.4587 20.2566 14.3119ZM15.5805 11.2353C17.1986 10.3957 19.0402 10.0877 20.8434 10.3551C22.6827 10.6279 24.3855 11.485 25.7004 12.7998C27.0152 14.1146 27.8723 15.8175 28.145 17.6568C28.4124 19.46 28.1044 21.3016 27.2648 22.9197C26.4253 24.5377 25.0969 25.8499 23.4686 26.6694C21.8403 27.489 19.995 27.7743 18.1952 27.4846C16.3955 27.195 14.7328 26.3453 13.4439 25.0563C12.1549 23.7673 11.3051 22.1047 11.0155 20.3049C10.7259 18.5052 11.0112 16.6599 11.8307 15.0316C12.6503 13.4033 13.9624 12.0749 15.5805 11.2353ZM28.6667 7.8335C27.5621 7.8335 26.6667 8.72893 26.6667 9.8335C26.6667 10.9381 27.5621 11.8335 28.6667 11.8335H28.6833C29.7879 11.8335 30.6833 10.9381 30.6833 9.8335C30.6833 8.72893 29.7879 7.8335 28.6833 7.8335H28.6667Z" fill="black"/>
</svg>
