<svg viewBox="0 0 83 46" fill="none" xmlns="http://www.w3.org/2000/svg">
	<path d="M1.68234 1.55648C2.02771 1.21072 2.43785 0.936431 2.8893 0.749287C3.34075 0.562144 3.82465 0.465825 4.31335 0.465825C4.80205 0.465825 5.28597 0.562144 5.73742 0.749288C6.18886 0.936431 6.599 1.21073 6.94437 1.55648L41.5009 36.1176L76.0573 1.55649C76.7551 0.858699 77.7015 0.466682 78.6884 0.466682C79.6752 0.466682 80.6216 0.858699 81.3194 1.55649C82.0172 2.25428 82.4092 3.20068 82.4092 4.1875C82.4092 5.17433 82.0172 6.12073 81.3194 6.81852L44.1319 44.006C43.7865 44.3518 43.3764 44.6261 42.9249 44.8132C42.4735 45.0003 41.9896 45.0967 41.5009 45.0967C41.0121 45.0967 40.5282 45.0003 40.0768 44.8132C39.6253 44.6261 39.2152 44.3518 38.8698 44.006L1.68234 6.81851C1.33658 6.47314 1.06228 6.06301 0.875141 5.61156C0.687997 5.16011 0.591678 4.6762 0.591678 4.1875C0.591678 3.6988 0.687998 3.21488 0.875141 2.76344C1.06228 2.31199 1.33658 1.90185 1.68234 1.55648Z" fill="rgba(94, 98, 130, 1)"/>
</svg>
