<svg viewBox="0 0 83 46" fill="none" xmlns="http://www.w3.org/2000/svg">
	<path d="M81.3185 44.006C80.9731 44.3518 80.563 44.6261 80.1115 44.8132C79.6601 45.0003 79.1762 45.0967 78.6875 45.0967C78.1988 45.0967 77.7149 45.0003 77.2634 44.8132C76.812 44.6261 76.4018 44.3518 76.0565 44.006L41.5 9.44488L6.94351 44.006C6.24572 44.7038 5.29931 45.0958 4.31249 45.0958C3.32567 45.0958 2.37927 44.7038 1.68148 44.006C0.983688 43.3082 0.591675 42.3618 0.591675 41.375C0.591675 40.3882 0.983688 39.4418 1.68148 38.744L38.869 1.55648C39.2143 1.21072 39.6245 0.936434 40.0759 0.74929C40.5274 0.562147 41.0113 0.46582 41.5 0.46582C41.9887 0.46582 42.4726 0.562147 42.924 0.74929C43.3755 0.936434 43.7856 1.21072 44.131 1.55648L81.3185 38.744C81.6643 39.0894 81.9386 39.4995 82.1257 39.9509C82.3128 40.4024 82.4092 40.8863 82.4092 41.375C82.4092 41.8637 82.3128 42.3476 82.1257 42.7991C81.9386 43.2505 81.6643 43.6606 81.3185 44.006Z" fill="rgba(94, 98, 130, 1)"/>
</svg>
