<svg width="192" height="185" viewBox="0 0 192 185" fill="none" xmlns="http://www.w3.org/2000/svg">
<g clip-path="url(#clip0_31_32)">
<path d="M188.684 88.8983L166.265 81.6722C151.926 76.9407 143.525 65.3371 139.582 50.7561L129.716 2.70019C129.459 1.75065 128.831 0.479248 126.9 0.479248C125.275 0.479248 124.341 1.75065 124.084 2.70019L114.218 50.7722C110.259 65.3532 101.874 76.9567 87.5347 81.6883L65.1161 88.9144C61.9456 89.9444 61.8974 94.4185 65.0517 95.4967L87.6313 103.27C101.923 108.018 110.259 119.605 114.218 134.122L124.1 181.647C124.357 182.596 124.888 184.302 126.916 184.302C129.057 184.302 129.475 182.596 129.733 181.647L139.614 134.122C143.573 119.589 151.91 108.002 166.201 103.27L188.78 95.4967C191.903 94.4024 191.854 89.9283 188.684 88.8983Z" fill="#FDD835"/>
<path d="M190.808 90.91C190.454 90.0249 189.762 89.2524 188.684 88.8983L166.265 81.6722C151.926 76.9406 143.525 65.337 139.582 50.7561L129.716 2.70017C129.572 2.15298 129.057 1.15517 128.461 0.865479L131.648 49.0984C134.013 71.1147 136.041 81.4791 153.616 84.5047C168.712 87.1119 186.173 90.1053 190.808 90.91Z" fill="#FFEE58"/>
<path d="M190.857 93.4207L151.974 102.337C138.278 105.813 130.73 113.747 130.73 134.508L126.916 184.302C128.22 184.173 129.282 183.465 129.732 181.647L139.614 134.122C143.573 119.589 151.91 108.002 166.201 103.27L188.78 95.4967C189.843 95.1105 190.519 94.3219 190.857 93.4207Z" fill="#F4B400"/>
<path d="M60.288 130.71C46.8819 126.284 45.6587 121.295 43.4056 112.878L37.7889 93.1793C37.4509 91.9079 34.1356 91.9079 33.7816 93.1793L29.9673 111.381C27.6981 119.766 22.87 126.429 14.63 129.149L1.49749 134.846C-0.321108 135.441 -0.353295 138.016 1.4653 138.628L14.6944 143.311C22.9022 146.031 27.6981 152.694 29.9834 161.047L33.7976 178.46C34.1517 179.731 37.4509 179.731 37.7889 178.46L42.263 161.127C44.5322 152.726 48.0084 146.047 59.1614 143.311L71.5858 138.628C73.4044 138 73.3883 135.425 71.5536 134.83L60.288 130.71Z" fill="#FDD835"/>
<path d="M38.8511 112.588C40.2191 125.238 40.9111 128.746 51.1628 131.37L72.5192 135.538C72.2939 135.232 71.972 134.975 71.5375 134.846L60.2719 130.71C48.5073 126.686 45.2564 121.569 43.0516 111.333C40.8467 101.097 38.497 94.4185 38.497 94.4185C37.6762 92.2136 36.5014 92.3263 36.5014 92.3263L38.8511 112.588Z" fill="#FFEE58"/>
<path d="M39.2373 156.75C39.2373 144.824 45.7553 138.918 56.1197 138.918L72.2456 138.258C72.2456 138.258 71.3122 139.497 69.6867 139.883L59.1614 143.311C50.2294 146.9 46.1576 148.703 43.3895 160.918C43.3895 160.918 39.8167 175.129 39.1408 176.625C38.2073 178.717 37.0969 179.152 37.0969 179.152L39.2373 156.75Z" fill="#F4B400"/>
<path d="M89.144 36.2878C90.0453 35.9821 90.0131 34.6946 89.0958 34.4371L76.6714 31.0896C75.3935 30.743 74.2269 30.0719 73.285 29.1413C72.3431 28.2107 71.658 27.0523 71.2961 25.7786L66.4036 5.58097C66.1622 4.59925 64.762 4.59925 64.5206 5.59706L59.9178 25.7142C59.57 27.023 58.8797 28.2154 57.9179 29.1687C56.9562 30.122 55.7577 30.8017 54.4459 31.1378L42.102 34.3405C41.1847 34.5819 41.1203 35.8694 42.0215 36.1913L55.0414 40.6975C57.375 41.5022 59.1775 43.4013 59.8856 45.7671L64.5367 64.4197C64.7781 65.3853 66.1622 65.4014 66.4036 64.4197L71.2156 45.7027C71.572 44.5346 72.2017 43.4683 73.0525 42.5922C73.9034 41.7162 74.9509 41.0556 76.1081 40.6653L89.144 36.2878Z" fill="#F4B400" stroke="#F4B400" stroke-width="6.25" stroke-miterlimit="10"/>
</g>
<defs>
<clipPath id="clip0_31_32">
<rect width="192" height="185" fill="white"/>
</clipPath>
</defs>
</svg>
