<svg width="45" height="40" viewBox="0 0 45 40" fill="none" xmlns="http://www.w3.org/2000/svg">
<path d="M39.1712 6.02217C38.2135 5.06406 37.0764 4.30401 35.825 3.78546C34.5735 3.2669 33.2321 3 31.8774 3C30.5228 3 29.1814 3.2669 27.9299 3.78546C26.6784 4.30401 25.5413 5.06406 24.5837 6.02217L22.5962 8.00967L20.6087 6.02217C18.6742 4.08775 16.0506 3.001 13.3149 3.001C10.5792 3.001 7.95559 4.08775 6.02117 6.02217C4.08675 7.9566 3 10.5802 3 13.3159C3 16.0516 4.08675 18.6753 6.02117 20.6097L8.00867 22.5972L22.5962 37.1847L37.1837 22.5972L39.1712 20.6097C40.1293 19.652 40.8893 18.515 41.4079 17.2635C41.9264 16.012 42.1933 14.6706 42.1933 13.3159C42.1933 11.9613 41.9264 10.6199 41.4079 9.36838C40.8893 8.1169 40.1293 6.97984 39.1712 6.02217Z" stroke="white" stroke-width="5" stroke-linecap="round" stroke-linejoin="round"/>
</svg>
