<svg width="39" height="39" viewBox="0 0 39 39" fill="none" xmlns="http://www.w3.org/2000/svg">
<g clip-path="url(#clip0_60_513)">
<path fill-rule="evenodd" clip-rule="evenodd" d="M17.625 5.125C10.7214 5.125 5.125 10.7214 5.125 17.625C5.125 24.5286 10.7214 30.125 17.625 30.125C24.5286 30.125 30.125 24.5286 30.125 17.625C30.125 10.7214 24.5286 5.125 17.625 5.125ZM0.125 17.625C0.125 7.96002 7.96002 0.125 17.625 0.125C27.29 0.125 35.125 7.96002 35.125 17.625C35.125 27.29 27.29 35.125 17.625 35.125C7.96002 35.125 0.125 27.29 0.125 17.625Z" fill="white"/>
<path fill-rule="evenodd" clip-rule="evenodd" d="M26.451 26.451C27.4273 25.4747 29.0102 25.4747 29.9865 26.451L38.1428 34.6072C39.1191 35.5835 39.1191 37.1665 38.1428 38.1428C37.1665 39.1191 35.5835 39.1191 34.6072 38.1428L26.451 29.9865C25.4747 29.0102 25.4747 27.4273 26.451 26.451Z" fill="white"/>
</g>
<defs>
<clipPath id="clip0_60_513">
<rect width="39" height="39" fill="white"/>
</clipPath>
</defs>
</svg>
